<svg width="25" height="25" viewBox="0 0 25 25" fill="none" xmlns="http://www.w3.org/2000/svg">
<path d="M3.67461 22.2897L1.71094 0.26416H23.2891L21.3234 22.2864L12.4869 24.7362L3.67461 22.2897Z" fill="#1572B6"/>
<path d="M12.5002 22.8638L19.6407 20.8841L21.3206 2.06494H12.5002V22.8638Z" fill="#33A9DC"/>
<path d="M12.5002 10.0447H16.0749L16.3217 7.27852H12.5002V4.57715H19.2741L19.2092 5.30195L18.5452 12.7461H12.5002V10.0447Z" fill="white"/>
<path d="M12.5162 17.0604L12.5043 17.064L9.49587 16.2517L9.30349 14.0972H6.59216L6.97048 18.3388L12.5039 19.8745L12.5162 19.871V17.0604Z" fill="#EBEBEB"/>
<path d="M15.8451 12.6318L15.5197 16.2494L12.5068 17.0627V19.8732L18.0447 18.3385L18.0854 17.882L18.5553 12.6318H15.8451Z" fill="white"/>
<path d="M12.5093 4.57715V7.27852H5.98435L5.93025 6.67148L5.8072 5.30195L5.74255 4.57715H12.5093ZM12.5002 10.0451V12.7465H9.52966L9.47556 12.1395L9.35232 10.7699L9.28787 10.0451H12.5002Z" fill="#EBEBEB"/>
</svg>
