<svg width="25" height="25" viewBox="0 0 25 25" fill="none" xmlns="http://www.w3.org/2000/svg">
<g clip-path="url(#clip0_2231_459)">
<path d="M6.875 6.81641L5.25391 5.19531V16.8555L5.27344 17.4023C5.27344 17.6562 5.3125 17.9492 5.41016 18.2422L18.2227 22.7539L21.4062 21.3477L6.875 6.81641Z" fill="#42A5F5"/>
<path d="M21.4062 21.3477L18.2227 22.7539L5.44922 18.2422C5.70312 19.1797 6.23047 20.2148 6.81641 20.8203L10.9766 24.9609L20.2734 24.9805L21.4062 21.3477Z" fill="#85CBF8"/>
<path d="M0.331925 12.7148C-0.0782313 13.1445 0.136612 14.0625 0.781144 14.7461L3.65224 17.6367L5.44911 18.2812C5.39052 17.9883 5.31239 17.6953 5.31239 17.4414L5.29286 16.8945L5.2538 5.21484M21.4061 21.3477L22.8124 18.1445L18.3202 5.33203C18.0272 5.27344 17.7343 5.21484 17.4804 5.19531L16.914 5.17578L5.27333 5.19531" fill="#0075C9"/>
<path d="M21.4062 21.3477L24.8633 20.2148V10.7031L20.8789 6.69922C20.293 6.11328 19.2578 5.56641 18.3008 5.33203L22.8125 18.1445" fill="#0075C9"/>
<path d="M17.6758 3.55461L14.7852 0.683511C14.1211 0.0194487 13.2227 -0.175864 12.7539 0.234293L5.25391 5.19523H16.875L17.4414 5.21476C17.6953 5.21476 17.9883 5.25382 18.2812 5.35148L17.6758 3.55461Z" fill="#42A5F5"/>
</g>
<defs>
<clipPath id="clip0_2231_459">
<rect width="25" height="25" fill="white"/>
</clipPath>
</defs>
</svg>
