<svg width="25" height="25" viewBox="0 0 25 25" fill="none" xmlns="http://www.w3.org/2000/svg">
<path d="M24.7402 19.2266C23.8496 19.4532 23.2988 19.2364 22.8047 18.4942C21.6953 16.8321 20.4707 15.2462 19.2891 13.6309C19.1367 13.4219 18.9785 13.2169 18.7812 12.9571C17.3828 14.8438 15.9863 16.6407 14.6758 18.5098C14.207 19.1778 13.7148 19.4688 12.8398 19.2325L18.0977 12.1758L13.2031 5.8028C14.0449 5.63874 14.627 5.72272 15.1426 6.47663C16.2812 8.14069 17.5371 9.72467 18.7891 11.4005C20.0488 9.73053 21.2891 8.1446 22.4609 6.49616C22.9316 5.82819 23.4375 5.57428 24.2832 5.82038C23.6426 6.66999 23.0156 7.50592 22.3848 8.336C21.5332 9.45514 20.6973 10.588 19.8145 11.6837C19.5 12.0743 19.5508 12.3282 19.832 12.6973C21.4648 14.8438 23.0781 17.0118 24.7402 19.2266ZM0.259766 12.0587C0.400391 11.3536 0.494141 10.6348 0.689453 9.94342C1.86133 5.75788 6.66602 4.01764 9.9668 6.61139C11.9004 8.13288 12.3809 10.2774 12.2852 12.6954H1.38672C1.22266 17.0333 4.3457 19.6524 8.32617 18.3165C9.72266 17.8477 10.5449 16.754 10.957 15.3868C11.166 14.7012 11.5117 14.5938 12.1562 14.7891C11.8262 16.5001 11.0781 17.9298 9.51562 18.8243C7.17188 20.1641 3.82617 19.7305 2.06641 17.8692C1.02734 16.7755 0.585937 15.4141 0.390625 13.9434C0.361328 13.7091 0.300781 13.4786 0.253906 13.2462C0.257812 12.8503 0.259766 12.4545 0.259766 12.0587ZM1.40625 11.7676H11.2559C11.1914 8.63093 9.23828 6.40241 6.56836 6.38288C3.63867 6.35944 1.5332 8.53522 1.40625 11.7676Z" fill="black"/>
</svg>
