<svg width="25" height="25" viewBox="0 0 25 25" fill="none" xmlns="http://www.w3.org/2000/svg">
<path d="M3.3833 20.1565L3.53451 19.9449L10.6858 6.37549L10.7009 6.23183L7.54854 0.310388C7.2843 -0.185623 6.54071 -0.0601957 6.4541 0.495075L3.3833 20.1565Z" fill="#FFC24A"/>
<path d="M3.47241 19.9952L3.58673 19.7722L10.6632 6.34502L7.51857 0.399507C7.25724 -0.0913052 6.59357 0.0338372 6.50781 0.583267L3.47241 19.9952Z" fill="#FFA712"/>
<g filter="url(#filter0_i_2231_490)">
<path d="M3.47241 19.9952L3.58673 19.7722L10.6632 6.34502L7.51857 0.399507C7.25724 -0.0913052 6.59357 0.0338372 6.50781 0.583267L3.47241 19.9952Z" fill="#FFA000"/>
</g>
<path d="M12.9988 10.7108L15.3461 8.30699L12.9981 3.8248C12.7753 3.40051 12.153 3.39923 11.9325 3.8248L10.678 6.21704V6.42074L12.9988 10.7108H12.9988Z" fill="#F4BD62"/>
<path d="M12.957 10.6106L15.2389 8.27354L12.957 3.92832C12.7403 3.51585 12.2139 3.47262 11.9995 3.88629L10.7384 6.31571L10.7007 6.43993L12.957 10.6106Z" fill="#FFA50E"/>
<g filter="url(#filter1_i_2231_490)">
<path d="M12.957 10.6106L15.2389 8.27354L12.957 3.92832C12.7403 3.51585 12.2139 3.47262 11.9995 3.88629L10.7384 6.31571L10.7007 6.43993L12.957 10.6106Z" fill="#F6820C"/>
</g>
<path d="M3.3833 20.1566L3.45182 20.0876L3.70082 19.9865L12.8516 10.8697L12.9676 10.5541L10.6848 6.2041L3.3833 20.1566Z" fill="#F6820C"/>
<path d="M13.2922 24.7544L21.5739 20.1357L19.2089 5.57054C19.1349 5.11484 18.5759 4.93471 18.2497 5.26142L3.3833 20.1567L11.6175 24.7541C11.8734 24.897 12.1617 24.972 12.4548 24.9721C12.7479 24.9722 13.0362 24.8972 13.2922 24.7544Z" fill="#FDE068"/>
<path d="M21.4996 20.0969L19.1526 5.64231C19.0792 5.19003 18.6143 5.00292 18.2906 5.32721L3.4751 20.1282L11.6189 24.6801C11.8729 24.8219 12.1589 24.8964 12.4498 24.8964C12.7407 24.8965 13.0268 24.8222 13.2809 24.6805L21.4997 20.0968L21.4996 20.0969Z" fill="#FCCA3F"/>
<path d="M13.2921 24.6182C13.0361 24.7609 12.7478 24.8358 12.4547 24.8358C12.1616 24.8357 11.8734 24.7607 11.6174 24.6178L3.44954 20.0865L3.3833 20.1565L11.6174 24.7539C11.8734 24.8968 12.1616 24.9718 12.4547 24.9719C12.7479 24.972 13.0361 24.897 13.2921 24.7543L21.5738 20.1355L21.5535 20.0107L13.2921 24.6182L13.2921 24.6182Z" fill="#EEAB37"/>
<defs>
<filter id="filter0_i_2231_490" x="3.47241" y="0.0927734" width="7.19067" height="19.9023" filterUnits="userSpaceOnUse" color-interpolation-filters="sRGB">
<feFlood flood-opacity="0" result="BackgroundImageFix"/>
<feBlend mode="normal" in="SourceGraphic" in2="BackgroundImageFix" result="shape"/>
<feColorMatrix in="SourceAlpha" type="matrix" values="0 0 0 0 0 0 0 0 0 0 0 0 0 0 0 0 0 0 127 0" result="hardAlpha"/>
<feOffset/>
<feGaussianBlur stdDeviation="39.886"/>
<feComposite in2="hardAlpha" operator="arithmetic" k2="-1" k3="1"/>
<feColorMatrix type="matrix" values="0 0 0 0 0 0 0 0 0 0 0 0 0 0 0 0 0 0 0.06 0"/>
<feBlend mode="normal" in2="shape" result="effect1_innerShadow_2231_490"/>
</filter>
<filter id="filter1_i_2231_490" x="10.7007" y="-12.3577" width="6.81753" height="22.9683" filterUnits="userSpaceOnUse" color-interpolation-filters="sRGB">
<feFlood flood-opacity="0" result="BackgroundImageFix"/>
<feBlend mode="normal" in="SourceGraphic" in2="BackgroundImageFix" result="shape"/>
<feColorMatrix in="SourceAlpha" type="matrix" values="0 0 0 0 0 0 0 0 0 0 0 0 0 0 0 0 0 0 127 0" result="hardAlpha"/>
<feOffset dx="2.2792" dy="-20.5128"/>
<feGaussianBlur stdDeviation="7.97721"/>
<feComposite in2="hardAlpha" operator="arithmetic" k2="-1" k3="1"/>
<feColorMatrix type="matrix" values="0 0 0 0 0 0 0 0 0 0 0 0 0 0 0 0 0 0 0.09 0"/>
<feBlend mode="normal" in2="shape" result="effect1_innerShadow_2231_490"/>
</filter>
</defs>
</svg>
