<svg width="25" height="25" viewBox="0 0 25 25" fill="none" xmlns="http://www.w3.org/2000/svg">
<g clip-path="url(#clip0_2231_515)">
<path d="M24.3626 11.402L13.5978 0.637549C12.9783 0.017627 11.9728 0.017627 11.3523 0.637549L9.11713 2.8731L11.9527 5.70864C12.6119 5.48618 13.3673 5.6354 13.8925 6.1606C14.4204 6.68911 14.5685 7.45103 14.3406 8.11235L17.0734 10.8454C17.7345 10.6174 18.4976 10.7647 19.0253 11.2936C19.7636 12.0313 19.7636 13.2272 19.0253 13.9653C18.8499 14.1408 18.6416 14.2801 18.4123 14.3751C18.183 14.4701 17.9373 14.519 17.6891 14.519C17.4409 14.519 17.1952 14.4701 16.9659 14.3751C16.7366 14.2801 16.5283 14.1408 16.3529 13.9653C16.0893 13.7015 15.9096 13.3657 15.8364 13C15.7633 12.6344 15.7999 12.2553 15.9417 11.9104L13.3933 9.36196L13.3929 16.0692C13.5778 16.1602 13.7466 16.2808 13.8927 16.4262C14.6306 17.1639 14.6306 18.3594 13.8927 19.0987C13.1546 19.8364 11.9583 19.8364 11.221 19.0987C10.4831 18.3596 10.4831 17.1641 11.221 16.4262C11.3978 16.2492 11.6081 16.1091 11.8396 16.0141V9.24477C11.6079 9.15009 11.3976 9.00989 11.221 8.83247C10.6621 8.27388 10.5275 7.45356 10.8142 6.76685L8.01869 3.97134L0.637442 11.3522C0.339652 11.6501 0.172363 12.054 0.172363 12.4752C0.172363 12.8964 0.339652 13.3004 0.637442 13.5983L11.4025 24.3627C12.0224 24.9827 13.0275 24.9827 13.6484 24.3627L24.3628 13.6483C24.6606 13.3503 24.8278 12.9463 24.8277 12.5251C24.8277 12.1039 24.6604 11.6999 24.3626 11.402Z" fill="#F34F29"/>
</g>
<defs>
<clipPath id="clip0_2231_515">
<rect width="25" height="25" fill="white"/>
</clipPath>
</defs>
</svg>
