<svg width="25" height="25" viewBox="0 0 25 25" fill="none" xmlns="http://www.w3.org/2000/svg">
<g clip-path="url(#clip0_2231_421)">
<path d="M0.274902 0.274902H24.7249V24.7251H0.274902V0.274902Z" fill="#F0DB4F"/>
<path d="M22.724 18.8938C22.5449 17.7784 21.8176 16.8415 19.6631 15.9678C18.9146 15.6239 18.0803 15.3776 17.8316 14.8104C17.7434 14.4803 17.7316 14.2944 17.7875 14.0946C17.9479 13.4462 18.7219 13.244 19.3354 13.43C19.7305 13.5624 20.1045 13.8669 20.3301 14.3526C21.3852 13.6694 21.383 13.6739 22.1197 13.2044C21.85 12.7862 21.7061 12.5932 21.5295 12.4143C20.8949 11.7055 20.0303 11.3405 18.6475 11.3684L17.9271 11.4616C17.2369 11.636 16.5791 11.9983 16.1934 12.4841C15.0359 13.7973 15.366 16.0958 16.7744 17.0417C18.1619 18.0831 20.2002 18.32 20.4605 19.2938C20.7139 20.486 19.5844 20.872 18.4617 20.7348C17.6344 20.5628 17.1742 20.1423 16.6768 19.3776C15.7611 19.9075 15.7611 19.9075 14.8197 20.4489C15.043 20.937 15.2775 21.1579 15.6518 21.5807C17.4229 23.3772 21.8549 23.2889 22.6498 20.5698C22.682 20.4764 22.8961 19.8538 22.724 18.8938ZM13.5668 11.5124H11.2799L11.2705 17.4249C11.2705 18.6823 11.3355 19.835 11.1311 20.1884C10.7965 20.8833 9.92949 20.7971 9.53437 20.6624C9.13223 20.4647 8.92773 20.1837 8.69082 19.7864C8.62578 19.6723 8.57695 19.5841 8.56055 19.5772L6.70117 20.7159C7.01035 21.3505 7.46582 21.9012 8.04922 22.2591C8.9207 22.7821 10.092 22.9425 11.317 22.6612C12.1143 22.429 12.8021 21.9479 13.1623 21.2157C13.683 20.2557 13.5713 19.0938 13.5666 17.8087C13.5783 15.712 13.5668 13.6157 13.5668 11.5124Z" fill="#323330"/>
</g>
<defs>
<clipPath id="clip0_2231_421">
<rect width="25" height="25" fill="white"/>
</clipPath>
</defs>
</svg>
