<svg width="25" height="25" viewBox="0 0 25 25" fill="none" xmlns="http://www.w3.org/2000/svg">
<g clip-path="url(#clip0_2231_507)">
<path d="M24.6767 12.5001C24.6767 5.74037 19.225 0.260498 12.5002 0.260498C5.775 0.260498 0.323364 5.74037 0.323364 12.5001C0.323364 19.2596 5.775 24.7397 12.5 24.7397C19.225 24.7397 24.6767 19.2596 24.6767 12.5001Z" fill="#339AF0"/>
<path d="M10.8423 6.35936C11.0853 6.32332 11.3328 6.38563 11.5298 6.53253C11.9333 6.83339 12.3055 7.17391 12.6409 7.54894L12.724 7.64339H15.3505C15.8627 7.64339 16.2775 8.05954 16.2775 8.57344C16.2775 9.0761 15.8803 9.48511 15.3844 9.50305L15.3505 9.50365H13.8997C14.305 10.4368 14.5131 11.4436 14.511 12.461C14.513 13.4419 14.3195 14.4131 13.9423 15.3178L13.8996 15.418H15.3496C15.862 15.418 16.2768 15.8343 16.2768 16.3482C16.2768 16.8507 15.8793 17.2599 15.3835 17.2778L15.3496 17.2784H12.7225C12.366 17.6905 11.9659 18.0626 11.529 18.3883C11.3318 18.5353 11.084 18.5977 10.8406 18.5615C10.5972 18.5253 10.3783 18.3936 10.2324 18.1954C10.16 18.0974 10.1076 17.9858 10.078 17.8671C10.0181 17.6277 10.0556 17.3742 10.1822 17.1624C10.2446 17.0578 10.3271 16.9666 10.4249 16.8941C11.8432 15.8375 12.6575 14.2218 12.6575 12.4608C12.6575 10.6999 11.8432 9.08423 10.4249 8.02756C10.327 7.95509 10.2444 7.86391 10.1819 7.75933C9.99627 7.44746 10.0081 7.05764 10.2092 6.75837L10.2324 6.7255C10.3798 6.52761 10.5988 6.39595 10.8423 6.35936ZM10.6753 10.8695C10.8444 10.9416 10.9974 11.047 11.125 11.1794C11.2532 11.3123 11.3536 11.4694 11.4204 11.6415C11.4874 11.8141 11.5196 11.9982 11.515 12.1833C11.5067 12.5449 11.3584 12.8892 11.1013 13.1437C10.8459 13.3964 10.5012 13.5383 10.142 13.5387C9.78257 13.5384 9.43778 13.3965 9.18231 13.1437C8.92523 12.8892 8.7769 12.5449 8.76859 12.1833C8.76416 11.9982 8.7964 11.814 8.86349 11.6415C8.93031 11.4694 9.03072 11.3123 9.1589 11.1794C9.28653 11.047 9.43942 10.9417 9.60854 10.8695C9.94929 10.7244 10.3345 10.7244 10.6753 10.8695Z" fill="white"/>
</g>
<defs>
<clipPath id="clip0_2231_507">
<rect width="25" height="25" fill="white"/>
</clipPath>
</defs>
</svg>
