<svg width="25" height="25" viewBox="0 0 25 25" fill="none" xmlns="http://www.w3.org/2000/svg">
<g clip-path="url(#clip0_2231_519)">
<path d="M22.8414 19.1028C21.501 19.0663 20.4773 19.1911 19.6021 19.5601C19.3535 19.6649 18.9566 19.6679 18.916 19.9794C19.0527 20.1226 19.074 20.3366 19.1826 20.5128C19.3916 20.8507 19.7443 21.3042 20.0592 21.5417C20.4033 21.8015 20.7578 22.079 21.1265 22.3038C21.7824 22.7036 22.5146 22.9321 23.1461 23.3327C23.5183 23.569 23.8881 23.8665 24.2512 24.1329C24.4308 24.2647 24.5513 24.4696 24.7847 24.5522V24.5144C24.6621 24.3581 24.6305 24.1437 24.518 23.9806L24.0224 23.4851C23.5381 22.8421 22.923 22.2772 22.2693 21.8083C21.748 21.4341 20.5814 20.9286 20.364 20.3222L20.326 20.2841C20.6955 20.2423 21.1281 20.1087 21.4693 20.0171C22.0424 19.8636 22.5545 19.9032 23.1461 19.7505L23.9463 19.5218V19.3694C23.6472 19.0626 23.434 18.6563 23.108 18.3786C22.2545 17.6521 21.3232 16.9261 20.3642 16.3206C19.8322 15.9851 19.175 15.7669 18.6111 15.4823C18.4215 15.3864 18.0883 15.3366 17.9631 15.1772C17.6668 14.7999 17.5056 14.3214 17.2773 13.8817C16.799 12.9604 16.3293 11.9544 15.9055 10.9851C15.6164 10.3241 15.4275 9.67256 15.067 9.07959C13.3365 6.23447 11.474 4.51748 8.58865 2.82959C7.97459 2.47061 7.23533 2.329 6.45408 2.14346C6.03514 2.11826 5.6158 2.09268 5.19666 2.06709C4.94061 1.96045 4.67459 1.64736 4.43455 1.49541C3.47869 0.891505 1.02674 -0.421972 0.318928 1.30498C-0.128143 2.39502 0.987092 3.4583 1.38572 4.01084C1.6658 4.39795 2.0242 4.83252 2.2242 5.26826C2.35584 5.55479 2.3785 5.84209 2.49119 6.14502C2.76795 6.8915 3.00916 7.70361 3.36756 8.39326C3.54862 8.74248 3.74822 9.11006 3.97733 9.42217C4.11756 9.61377 4.35838 9.69814 4.39627 9.99385C4.16112 10.3231 4.14764 10.8345 4.01541 11.2517C3.41971 13.1296 3.64451 15.464 4.51092 16.8538C4.77655 17.2808 5.40291 18.1958 6.26385 17.8446C7.01697 17.538 6.84881 16.5872 7.06424 15.7485C7.11287 15.5585 7.08299 15.4187 7.1785 15.2913V15.3294L7.86463 16.7013C8.37244 17.519 9.27322 18.3735 10.0369 18.9501C10.4328 19.2491 10.7445 19.7659 11.2564 19.9409V19.9026H11.2183C11.1191 19.7481 10.9638 19.6841 10.8373 19.5599C10.539 19.2675 10.2074 18.904 9.96092 18.569C9.26639 17.6263 8.65272 16.5944 8.09354 15.5204C7.82635 15.0073 7.59412 14.4417 7.36912 13.9196C7.2824 13.7185 7.28358 13.414 7.10272 13.3099C6.85604 13.6923 6.49295 14.0017 6.30233 14.4532C5.99744 15.1751 5.95819 16.0556 5.8451 16.9685C5.7783 16.9923 5.80799 16.9759 5.76873 17.0063C5.23787 16.8784 5.05155 16.3321 4.85408 15.8632C4.35526 14.6776 4.26248 12.769 4.70154 11.4044C4.81522 11.0511 5.3285 9.93936 5.12069 9.61299C5.02147 9.2876 4.69412 9.09932 4.51112 8.85068C4.28436 8.54326 4.05819 8.13858 3.90096 7.7835C3.49276 6.85947 3.30213 5.82178 2.87225 4.8874C2.66658 4.44072 2.31912 3.98857 2.03377 3.5917C1.71795 3.15166 1.36405 2.82764 1.11912 2.2958C1.03201 2.10674 0.91385 1.804 1.04276 1.60967C1.08377 1.47861 1.14197 1.42393 1.27147 1.38115C1.49256 1.21065 2.10819 1.43779 2.33826 1.5333C2.9494 1.78721 3.45955 2.029 3.97733 2.37197C4.22557 2.53682 4.47713 2.85537 4.77752 2.94365H5.12049C5.65701 3.0669 6.25799 2.98174 6.75936 3.13408C7.6453 3.40322 8.43924 3.82217 9.16014 4.27744C11.3566 5.66455 13.1527 7.63877 14.3812 9.99404C14.5789 10.3733 14.6644 10.7351 14.8385 11.1374C15.1896 11.9485 15.632 12.7831 15.9814 13.5765C16.3303 14.3679 16.6701 15.1665 17.1631 15.8251C17.4222 16.1712 18.423 16.3569 18.8781 16.5493C19.1969 16.6839 19.7193 16.8245 20.0215 17.0063C20.5982 17.3544 21.1572 17.7687 21.6984 18.1499C21.9685 18.3403 22.8 18.7585 22.8414 19.1028ZM5.80643 4.58311C5.52694 4.57783 5.32928 4.61357 5.12029 4.65908V4.69717H5.15838C5.29178 4.971 5.52713 5.14756 5.69178 5.3833C5.81873 5.65029 5.94588 5.91689 6.07303 6.1835L6.11092 6.1458C6.34705 5.9792 6.45506 5.71338 6.45369 5.30713C6.35916 5.20772 6.34529 5.08311 6.26326 4.96436C6.15467 4.80596 5.94393 4.71592 5.80643 4.58311Z" fill="#00618A"/>
</g>
<defs>
<clipPath id="clip0_2231_519">
<rect width="25" height="25" fill="white"/>
</clipPath>
</defs>
</svg>
