<svg width="25" height="25" viewBox="0 0 25 25" fill="none" xmlns="http://www.w3.org/2000/svg">
<g clip-path="url(#clip0_2298_2250)">
<path d="M14.7266 0.0585938C14.5508 0.0585938 14.375 0.0976562 14.2188 0.15625C14.5508 0.371094 14.7266 0.664062 14.8242 0.996094C14.8242 1.03516 14.8437 1.07422 14.8437 1.11328C14.8437 1.15234 14.8633 1.19141 14.8633 1.23047C14.8828 1.79688 14.707 1.875 14.5898 2.20703C14.3945 2.63672 14.4531 3.10547 14.6875 3.47656C14.707 3.51563 14.7266 3.57422 14.7656 3.61328C14.5117 1.97266 15.8789 1.73828 16.1328 1.23047C16.1523 0.78125 15.7813 0.488281 15.4883 0.273437C15.1953 0.0976562 14.9609 0.0585938 14.7266 0.0585938ZM16.7773 0.410156C16.7578 0.566406 16.7773 0.527344 16.7578 0.605469C16.7578 0.664062 16.7578 0.722656 16.7383 0.78125C16.7187 0.839844 16.7187 0.878906 16.6992 0.9375C16.6797 0.996094 16.6602 1.03516 16.6406 1.09375C16.6211 1.13281 16.6016 1.17187 16.582 1.23047C16.5625 1.25 16.543 1.28906 16.5234 1.30859C16.5039 1.32812 16.5039 1.34766 16.4844 1.36719C16.4453 1.40625 16.4258 1.46484 16.3867 1.50391L16.2695 1.62109C16.2305 1.66016 16.1914 1.69922 16.1523 1.71875C16.0156 1.81641 15.8594 1.89453 15.7227 1.99219C15.6836 2.03125 15.625 2.05078 15.5859 2.08984C15.5469 2.12891 15.5078 2.14844 15.4687 2.1875L15.3516 2.30469C15.3125 2.34375 15.2734 2.38281 15.2539 2.44141C15.2148 2.48047 15.1953 2.53906 15.1562 2.57812C15.1367 2.63672 15.1172 2.67578 15.0781 2.73437C15.0586 2.79297 15.0391 2.83203 15.0195 2.89062C15 2.94922 14.9805 3.00781 14.9805 3.04688C14.9805 3.06641 14.9805 3.10547 14.9609 3.125C14.9609 3.14453 14.9609 3.18359 14.9414 3.20313V3.47656C14.9414 3.53516 14.9414 3.57422 14.9609 3.63281C14.9609 3.69141 14.9805 3.73047 15 3.78906C15.0195 3.84766 15.0391 3.88672 15.0586 3.94531C15.0781 3.98438 15.0977 4.00391 15.0977 4.04297L13.6133 3.47656C13.3594 3.39844 13.125 3.33984 12.8711 3.28125C12.7344 3.24219 12.5977 3.22266 12.4609 3.18359C12.0703 3.10547 11.6797 3.04687 11.2891 3.00781H11.25C10.8594 2.96875 10.4883 2.94922 10.0977 2.94922C9.80469 2.94922 9.53125 2.96875 9.25781 2.98828C8.86719 3.00781 8.47656 3.06641 8.08594 3.125L7.79297 3.18359C7.59766 3.22266 7.40234 3.26172 7.20703 3.32031C7.10938 3.33984 7.01172 3.37891 6.91406 3.39844C6.81641 3.4375 6.71875 3.47656 6.64062 3.51563C6.5625 3.55469 6.50391 3.57422 6.42578 3.61328C6.40625 3.61328 6.40625 3.61328 6.38672 3.63281C6.32812 3.67188 6.26953 3.69141 6.21094 3.73047C6.19141 3.73047 6.17188 3.75 6.17188 3.75C6.09375 3.78906 6.03516 3.82813 5.97656 3.84766C5.9375 3.86719 5.87891 3.88672 5.83984 3.90625C5.82031 3.92578 5.80078 3.92578 5.78125 3.94531C5.72266 3.98438 5.66406 4.00391 5.60547 4.04297C5.54688 4.08203 5.48828 4.10156 5.44922 4.14063C5.41016 4.17969 5.35156 4.19922 5.3125 4.23828C5.3125 4.23828 5.29297 4.23828 5.29297 4.25781C5.25391 4.27734 5.21484 4.31641 5.17578 4.35547L5.15625 4.375C5.11719 4.39453 5.09766 4.43359 5.05859 4.45312C5.03906 4.45312 5.03906 4.47266 5.01953 4.47266C4.98047 4.49219 4.96094 4.53125 4.92188 4.55078C4.92188 4.57031 4.90234 4.57031 4.90234 4.57031L4.78516 4.6875L4.76562 4.70703L4.64844 4.82422C4.64844 4.82422 4.64844 4.84375 4.62891 4.84375L4.53125 4.94141C4.51172 4.96094 4.49219 4.96094 4.49219 4.98047L4.375 5.09766C4.375 5.11719 4.35547 5.11719 4.35547 5.13672L4.19922 5.29297L4.17969 5.3125C4.08203 5.42969 3.96484 5.52734 3.84766 5.625C3.73047 5.72266 3.61328 5.82031 3.47656 5.91797C3.33984 6.01562 3.22266 6.09375 3.08594 6.17188C2.94922 6.25 2.8125 6.30859 2.67578 6.36719C2.53906 6.42578 2.40234 6.48438 2.26563 6.52344C1.99219 6.58203 1.71875 6.69922 1.48437 6.71875C1.48437 6.62109 1.42578 6.64063 1.36719 6.64063C1.30859 6.66016 1.25 6.66016 1.21094 6.67969C1.15234 6.69922 1.11328 6.71875 1.05469 6.73828C0.996094 6.75781 0.957031 6.77734 0.898437 6.81641C0.859375 6.85547 0.800781 6.875 0.761719 6.91406C0.722656 6.95313 0.664062 6.99219 0.625 7.03125C0.585937 7.07031 0.527344 7.10937 0.488281 7.14844C0.449219 7.1875 0.410156 7.22656 0.371094 7.28516C0.332031 7.34375 0.292969 7.38281 0.273438 7.44141C0.234375 7.48047 0.214844 7.53906 0.175781 7.59766C0.15625 7.65625 0.117188 7.71484 0.0976563 7.77344L0.0390625 7.94922C0.0195313 8.00781 0.0195313 8.04688 2.91038e-10 8.10547V8.125C-0.0195312 8.18359 -0.0195312 8.26172 -0.0195312 8.30078C2.91038e-10 8.28125 2.91038e-10 8.32031 2.91038e-10 8.35938V8.4375C2.91038e-10 8.47656 0.0195313 8.51562 0.0195313 8.55469C0.0390625 8.59375 0.0390625 8.63281 0.0585938 8.67188C0.078125 8.71094 0.0976563 8.75 0.136719 8.78906C0.15625 8.82813 0.195313 8.86719 0.214844 8.90625C0.253906 8.94531 0.292969 8.98437 0.332031 9.00391C0.371094 9.04297 0.410156 9.08203 0.449219 9.10156C0.605469 9.23828 0.644531 9.27734 0.839844 9.39453C0.878906 9.41406 0.898438 9.43359 0.9375 9.45313H0.957031V9.49219C0.957031 9.55078 0.976562 9.58984 0.996094 9.64844C1.01562 9.70703 1.03516 9.76563 1.05469 9.80469L1.11328 9.92188C1.11328 9.94141 1.13281 9.94141 1.13281 9.96094C1.15234 10.0195 1.19141 10.0586 1.21094 10.0977C1.25 10.1367 1.26953 10.1953 1.30859 10.2344L1.42578 10.3516L1.54297 10.4687H1.5625C1.60156 10.5078 1.64063 10.5273 1.67969 10.5664C1.71875 10.6055 1.77734 10.625 1.81641 10.6445C1.85547 10.6641 1.91406 10.7031 1.97266 10.7227C2.01172 10.7422 2.05078 10.7617 2.10938 10.7617C2.10938 10.7617 2.12891 10.7617 2.12891 10.7813C2.14844 10.7813 2.1875 10.8008 2.20703 10.8008C2.1875 11.1523 2.1875 11.4844 2.22656 11.6016C2.28516 11.7383 2.57813 11.3281 2.85156 10.8789C2.8125 11.3281 2.79297 11.8555 2.85156 12.0117C2.92969 12.168 3.30078 11.6602 3.65234 11.1133C8.22266 10.0586 12.4023 13.2227 12.8516 17.6953C12.7734 16.9922 11.9141 16.6016 11.5039 16.6992C11.3086 17.168 10.9766 17.793 10.4492 18.1641C10.4883 17.7344 10.4687 17.3047 10.3906 16.875C10.2539 17.4609 9.98047 18.0273 9.58984 18.4961C8.98437 18.5352 8.35937 18.2422 8.04687 17.793C8.02734 17.7734 8.00781 17.7344 7.98828 17.7148C7.96875 17.6758 7.94922 17.6172 7.92969 17.5781C7.91016 17.5391 7.89062 17.4805 7.89062 17.4414V17.3047V17.207C7.89062 17.168 7.91016 17.1094 7.92969 17.0703C7.94922 17.0312 7.94922 16.9727 7.96875 16.9336C7.98828 16.8945 8.00781 16.8359 8.04687 16.7969C8.16406 16.4844 8.16406 16.2305 7.94922 16.0937L7.83203 16.0352C7.8125 16.0352 7.77344 16.0156 7.75391 16.0156C7.73437 16.0156 7.71484 15.9961 7.69531 15.9961C7.65625 15.9766 7.59766 15.9766 7.55859 15.957C7.51953 15.9375 7.46094 15.9375 7.42187 15.9375C7.38281 15.9375 7.32422 15.918 7.28516 15.918H7.1875C7.12891 15.918 7.08984 15.918 7.05078 15.9375C7.01172 15.9375 6.95313 15.957 6.91406 15.957C6.875 15.9766 6.81641 15.9766 6.77734 15.9961C6.73828 16.0156 6.69922 16.0352 6.64062 16.0547L6.52344 16.1133C5.01953 17.0898 5.91797 19.3945 6.93359 20.0586C6.54297 20.1367 6.15234 20.2148 6.03516 20.293L6.01562 20.3125C6.28906 20.4883 6.58203 20.625 6.89453 20.7422C7.30469 20.8789 7.75391 20.9961 7.94922 21.0547C8.47656 21.1719 9.02344 21.2109 9.57031 21.1719C12.4219 20.9766 14.7656 18.7891 15.1953 15.9375C15.2148 15.9961 15.2148 16.0547 15.2344 16.1133C15.2539 16.2305 15.2734 16.3477 15.293 16.4844C15.3125 16.543 15.3125 16.6016 15.3125 16.6602V16.6797C15.3125 16.7383 15.332 16.7969 15.332 16.8555C15.332 16.9336 15.3516 16.9922 15.3516 17.0703V17.8906C15.3516 17.9492 15.332 17.9883 15.332 18.0469V18.1055C15.332 18.1641 15.3125 18.2227 15.3125 18.3008C15.293 18.3594 15.293 18.418 15.2734 18.4766V18.4961C15.2539 18.5547 15.2539 18.6133 15.2344 18.6719V18.6914C15.2148 18.75 15.2148 18.8086 15.1953 18.8672V18.8867L15.1367 19.0625V19.082C15.1172 19.1406 15.0977 19.2187 15.0781 19.2773C15.0586 19.3359 15.0391 19.3945 15 19.4727C14.9805 19.5312 14.9609 19.6094 14.9219 19.668C14.9023 19.7266 14.8633 19.7852 14.8437 19.8633C14.8242 19.9219 14.7852 19.9805 14.7656 20.0391C14.7656 20.0586 14.7461 20.0781 14.7461 20.0781C14.7461 20.0781 14.7461 20.0977 14.7266 20.0977C14.3164 20.9375 13.6914 21.6797 12.9102 22.2656C12.8516 22.3047 12.8125 22.3437 12.7539 22.3828C12.7344 22.4023 12.7148 22.4023 12.7148 22.4219C12.6758 22.4609 12.6172 22.4805 12.5781 22.5195L12.5977 22.5586C12.6953 22.5391 12.7734 22.5391 12.8711 22.5195C13.0469 22.5 13.2031 22.4609 13.3789 22.4219C13.418 22.4219 13.4766 22.4023 13.5156 22.3828C13.5547 22.3828 13.5742 22.3633 13.6133 22.3633C13.6523 22.3633 13.7109 22.3437 13.75 22.3437C13.7891 22.3242 13.8281 22.3242 13.8672 22.3047C14.5117 22.1484 15.1367 21.9336 15.7422 21.6797C14.707 23.0859 13.3398 24.2188 11.7383 24.9609C12.4805 24.9023 13.2227 24.7852 13.9453 24.5703C16.543 23.8086 18.7305 22.0508 20.0391 19.6875C19.7656 21.1719 19.1797 22.5977 18.3008 23.8477C18.9258 23.4375 19.4922 22.9492 20.0195 22.4219C21.4648 20.918 22.4219 18.9844 22.7344 16.9336C22.9492 17.9492 23.0273 19.0039 22.9297 20.0391C27.5977 13.5352 23.3203 6.79688 21.5234 5.01953C21.5234 5 21.5039 5 21.5039 4.98047C21.5039 5.05859 21.5039 5.13672 21.4844 5.21484C21.4648 5.37109 21.4453 5.50781 21.4258 5.64453C21.3867 5.78125 21.3477 5.9375 21.3086 6.07422C21.2695 6.21094 21.2109 6.34766 21.1523 6.48438C21.0938 6.62109 21.0352 6.75781 20.957 6.875C20.8789 6.99219 20.8008 7.12891 20.7227 7.24609C20.6445 7.36328 20.5469 7.48047 20.4492 7.59766C20.3516 7.71484 20.2539 7.8125 20.1367 7.92969C20.0781 7.98828 20.0195 8.04688 19.9414 8.08594C19.8828 8.125 19.8438 8.16406 19.7852 8.22266C19.668 8.32031 19.5508 8.39844 19.4141 8.47656C19.2969 8.55469 19.1602 8.63281 19.0234 8.69141L18.6133 8.86719C18.4766 8.92578 18.3398 8.96484 18.2031 9.00391C18.0664 9.04297 17.9102 9.08203 17.7734 9.10156C17.6172 9.12109 17.4805 9.14063 17.3438 9.16016C17.2461 9.16016 17.1289 9.17969 17.0312 9.17969C16.875 9.17969 16.7383 9.16016 16.6016 9.16016C16.4453 9.14063 16.3086 9.12109 16.1719 9.10156C16.0156 9.08203 15.8789 9.04297 15.7422 8.98438C15.8789 8.96484 16.0352 8.96484 16.1719 8.92578C16.3281 8.90625 16.4648 8.86719 16.6016 8.82813C16.7383 8.78906 16.8945 8.75 17.0117 8.69141L17.4219 8.51562C17.5586 8.45703 17.6758 8.37891 17.8125 8.30078C17.9297 8.22266 18.0664 8.125 18.1836 8.04688C18.3008 7.94922 18.418 7.85156 18.5156 7.75391C18.6328 7.65625 18.7305 7.53906 18.8281 7.44141C18.9258 7.32422 19.0234 7.20703 19.1016 7.08984C19.1211 7.07031 19.1211 7.05078 19.1406 7.03125C19.1992 6.93359 19.2773 6.81641 19.3359 6.71875C19.4141 6.58203 19.4727 6.46484 19.5312 6.32813C19.5898 6.19141 19.6484 6.05469 19.6875 5.91797L19.8047 5.50781C19.8242 5.35156 19.8633 5.21484 19.8633 5.07813C19.8828 4.92188 19.8828 4.78516 19.8828 4.64844C19.8828 4.55078 19.8828 4.43359 19.8633 4.33594C19.8437 4.17969 19.8242 4.04297 19.8047 3.90625C19.7852 3.75 19.7461 3.61328 19.707 3.47656C19.668 3.33984 19.6094 3.20312 19.5703 3.06641C19.5117 2.92969 19.4531 2.79297 19.3945 2.67578C19.3164 2.53906 19.2578 2.42187 19.1797 2.28516C19.1016 2.16797 19.0039 2.05078 18.9258 1.93359C18.8281 1.81641 18.7305 1.71875 18.6328 1.60156C18.5742 1.54297 18.5156 1.48437 18.457 1.44531C18.1641 1.21094 17.8711 1.01562 17.5586 0.820312C17.5195 0.800781 17.4805 0.78125 17.4219 0.761719C17.168 0.546875 16.9727 0.488281 16.7773 0.410156Z" fill="#DF234F"/>
</g>
<defs>
<clipPath id="clip0_2298_2250">
<rect width="25" height="25" fill="white"/>
</clipPath>
</defs>
</svg>
