<svg width="25" height="25" viewBox="0 0 25 25" fill="none" xmlns="http://www.w3.org/2000/svg">
<path d="M22.0256 5.92466L13.4129 0.923682C12.8697 0.614307 12.1625 0.614307 11.615 0.923682L2.91035 5.92466C2.3498 6.24712 1.95312 6.85317 1.95312 7.50142V17.4901C1.95312 18.1383 2.36016 18.7446 2.9207 19.0688L5.22051 20.375C6.31973 20.9165 6.7082 20.9165 7.2084 20.9165C8.83594 20.9165 9.76562 19.9323 9.76562 18.2157V8.35435C9.76562 8.21509 9.69316 8.00786 9.55645 8.00786H8.4582C8.31914 8.00786 8.00781 8.21509 8.00781 8.35415V18.2155C8.00781 18.9764 7.31953 19.7336 6.0332 19.0905L3.65684 17.7208C3.57402 17.6758 3.51562 17.5854 3.51562 17.4901V7.50142C3.51562 7.40728 3.62402 7.31274 3.70742 7.2645L12.384 2.27212C12.465 2.22622 12.5842 2.22622 12.665 2.27212L21.2357 7.26333C21.3178 7.31274 21.2889 7.40435 21.2889 7.50142V17.4901C21.2889 17.5854 21.3246 17.6782 21.2436 17.7241L12.633 22.7194C12.5592 22.7637 12.4676 22.7637 12.3867 22.7194L10.1783 21.4012C10.1117 21.3626 10.0326 21.3487 9.96875 21.3844C9.3543 21.7327 9.24102 21.779 8.66465 21.9788C8.52285 22.0282 8.31367 22.1139 8.74473 22.3555L11.635 24.0653C11.9109 24.2247 12.2239 24.3086 12.5426 24.3086C12.8633 24.3086 13.1773 24.2254 13.4541 24.0653L22.0254 19.0688C22.5859 18.7422 22.8516 18.1383 22.8516 17.4901V7.50142C22.8516 6.85317 22.5859 6.24868 22.0256 5.92466ZM15.2168 15.9073C12.9266 15.9073 12.4221 15.2754 12.2539 14.1366C12.2344 14.0139 12.1303 13.8672 12.0055 13.8672H10.8861C10.7477 13.8672 10.6363 14.0352 10.6363 14.1731C10.6363 15.6313 11.4291 17.3981 15.217 17.3981C17.959 17.3981 19.5311 16.3327 19.5311 14.4471C19.5311 12.5776 18.268 12.087 15.6088 11.735C12.9209 11.3797 12.6479 11.2002 12.6479 10.5706C12.6479 10.0514 12.8791 9.35903 14.8693 9.35903C16.6477 9.35903 17.3031 9.74067 17.5729 10.9393C17.5959 11.052 17.6988 11.1329 17.815 11.1329H18.9389C19.008 11.1329 19.074 11.1049 19.1225 11.0555C19.1693 11.0024 19.1941 10.9358 19.1879 10.8643C19.0139 8.80024 17.6426 7.83833 14.8691 7.83833C12.4021 7.83833 10.9305 8.88013 10.9305 10.6264C10.9305 12.5206 12.3947 13.044 14.7629 13.2782C17.5959 13.5559 17.8162 13.97 17.8162 14.5272C17.8162 15.495 17.0393 15.9073 15.2168 15.9073Z" fill="#83CD29"/>
</svg>
