<svg width="25" height="25" viewBox="0 0 25 25" fill="none" xmlns="http://www.w3.org/2000/svg">
<g clip-path="url(#clip0_2233_606)">
<path d="M22.6865 18.9934L14.113 0.786189C13.896 0.329696 13.4461 0.0289321 12.9413 0.00281043C12.4354 -0.0310887 11.9526 0.219204 11.6887 0.652198L2.38973 15.7134C2.10105 16.1777 2.10712 16.7671 2.40531 17.2253L6.95165 24.2657C7.30489 24.8085 7.97309 25.0542 8.59382 24.8696L21.7872 20.9671C22.1892 20.8496 22.5204 20.5636 22.6953 20.1831C22.8677 19.8044 22.8648 19.369 22.6872 18.9927L22.6865 18.9934ZM20.767 19.7742L9.57164 23.0847C9.23012 23.1863 8.90231 22.8903 8.97335 22.5457L12.9731 3.39371C13.0479 3.03537 13.5427 2.97865 13.6992 3.3102L21.1036 19.0339C21.1698 19.1757 21.1706 19.3394 21.1058 19.4818C21.0409 19.6243 20.9169 19.7311 20.7664 19.7742H20.767Z" fill="black"/>
</g>
<defs>
<clipPath id="clip0_2233_606">
<rect width="25" height="25" fill="white"/>
</clipPath>
</defs>
</svg>
