<svg width="25" height="25" viewBox="0 0 25 25" fill="none" xmlns="http://www.w3.org/2000/svg">
<g clip-path="url(#clip0_2231_425)">
<path d="M13.5743 19.3704C13.5627 19.2278 13.5559 19.136 13.5559 19.136C13.5559 19.136 13.125 16.228 12.6114 15.3598C12.5305 15.2217 12.6198 14.6579 12.8471 13.8208C12.9799 14.0491 13.5385 15.0301 13.6514 15.3461C13.778 15.7024 13.8038 15.8045 13.8038 15.8045C13.8038 15.8045 13.4971 14.226 12.9944 13.3051C13.1166 12.8946 13.2471 12.4867 13.3858 12.0815C13.5758 12.4155 14.0329 13.2258 14.1334 13.5073C14.1534 13.5645 14.1709 13.6133 14.1862 13.6584C14.1907 13.6317 14.1959 13.6049 14.2006 13.5776C14.0854 13.0885 13.8588 12.2377 13.5491 11.6084C14.2366 8.02876 16.5825 3.24439 18.9866 1.10962H3.30083C2.24868 1.10962 1.38892 1.97017 1.38892 3.02153V20.3204C1.38892 21.3717 2.24946 22.2323 3.30103 22.2323H13.6325C13.5542 21.2805 13.5348 20.3247 13.5745 19.3706" fill="#0B7FCC"/>
<path d="M12.8471 13.8208C12.9799 14.0489 13.5385 15.0293 13.6512 15.3459C13.7779 15.7022 13.8037 15.8043 13.8037 15.8043C13.8037 15.8043 13.4971 14.2258 12.9943 13.3049C13.1166 12.8942 13.2471 12.4859 13.3857 12.0803C13.559 12.3864 13.9564 13.0899 14.099 13.4225L14.115 13.2348C13.9885 12.7473 13.7961 12.1086 13.549 11.6083C14.1822 8.31313 16.2209 3.99692 18.4174 1.66724H3.30059C2.94153 1.66755 2.59727 1.8103 2.34337 2.06417C2.08946 2.31804 1.94665 2.66229 1.94629 3.02134V19.0584C5.36953 17.7438 9.49785 16.5428 13.0508 16.5948C12.9195 16.086 12.7693 15.626 12.6113 15.3596C12.5305 15.2215 12.6197 14.6571 12.8471 13.8208Z" fill="url(#paint0_linear_2231_425)"/>
<path d="M22.6465 0.543267C21.5723 -0.414936 20.2708 -0.0295848 18.9876 1.10948C18.7894 1.28678 18.5995 1.47311 18.4184 1.66788C16.2212 3.99717 14.1833 8.31299 13.5501 11.6083C13.7965 12.1089 13.9895 12.7474 14.1153 13.2349C14.1481 13.3599 14.1778 13.4774 14.2016 13.5774C14.2573 13.8132 14.287 13.9673 14.287 13.9673C14.287 13.9673 14.2672 13.8925 14.1864 13.6583C14.1712 13.6134 14.1536 13.5638 14.1336 13.5073C14.1253 13.4829 14.1131 13.4538 14.1001 13.4226C13.9567 13.0899 13.56 12.3864 13.386 12.0814C13.2372 12.5208 13.1053 12.9329 12.9946 13.305C13.4981 14.2259 13.8049 15.8044 13.8049 15.8044C13.8049 15.8044 13.7782 15.7023 13.6522 15.346C13.5393 15.0294 12.9801 14.0491 12.8481 13.8208C12.6208 14.6569 12.5307 15.2216 12.6124 15.3599C12.7704 15.6259 12.9198 16.0868 13.0518 16.5948C13.3495 17.7407 13.5569 19.1362 13.5569 19.1362C13.5569 19.1362 13.5629 19.2278 13.5753 19.3706C13.5356 20.3247 13.555 21.2804 13.6333 22.2321C13.7317 23.4255 13.917 24.4515 14.1536 25.0001L14.3153 24.9124C13.9674 23.8314 13.8262 22.4138 13.8879 20.7804C13.9817 18.2817 14.5563 15.2696 15.6176 12.1302C17.4128 7.38995 19.9024 3.5876 22.1805 1.77178C20.1038 3.64717 17.2932 9.71788 16.4516 11.9661C15.5102 14.4839 14.8426 16.8458 14.4397 19.1095C15.1331 16.9878 17.3786 16.0763 17.3786 16.0763C17.3786 16.0763 18.4795 14.7173 19.7667 12.7778C18.9952 12.9542 17.7295 13.2548 17.3061 13.4325C16.6811 13.695 16.5118 13.7841 16.5118 13.7841C16.5118 13.7841 18.5374 12.5513 20.2754 11.9929C22.6649 8.2292 25.268 2.88194 22.6467 0.543462" fill="#003956"/>
</g>
<defs>
<linearGradient id="paint0_linear_2231_425" x1="11.4434" y1="2.02157" x2="11.4434" y2="18.0904" gradientUnits="userSpaceOnUse">
<stop stop-color="#95D7F4"/>
<stop offset="0.92" stop-color="#0F7FCC"/>
<stop offset="1" stop-color="#0F7FCC"/>
</linearGradient>
<clipPath id="clip0_2231_425">
<rect width="25" height="25" fill="white"/>
</clipPath>
</defs>
</svg>
