<svg width="25" height="25" viewBox="0 0 25 25" fill="none" xmlns="http://www.w3.org/2000/svg">
<g clip-path="url(#clip0_2231_517)">
<path d="M12.5007 5.00049C9.16733 5.00049 7.08472 6.6665 6.25073 9.9999C7.50034 8.33369 8.95913 7.70889 10.6253 8.12549C11.5767 8.3626 12.2566 9.05244 13.0095 9.8169C14.2349 11.0604 15.6533 12.5001 18.7507 12.5001C22.0839 12.5001 24.1667 10.8339 25.0007 7.49971C23.7509 9.16689 22.2923 9.7917 20.6259 9.3751C19.6748 9.13779 18.9957 8.44814 18.2417 7.68369C17.0171 6.44014 15.5992 5.00049 12.5007 5.00049ZM6.25073 12.5001C2.91753 12.5001 0.834717 14.1663 0.000732422 17.5005C1.25034 15.8333 2.70894 15.2085 4.37534 15.6251C5.32671 15.8624 6.00659 16.5521 6.75952 17.3165C7.98491 18.5601 9.40327 19.9997 12.5007 19.9997C15.8339 19.9997 17.9167 18.3337 18.7507 15.0003C17.5009 16.6665 16.0423 17.2913 14.3759 16.8747C13.4248 16.6376 12.7457 15.9478 11.9917 15.1833C10.7671 13.9397 9.34917 12.5001 6.25073 12.5001Z" fill="#38BDF8"/>
</g>
<defs>
<clipPath id="clip0_2231_517">
<rect width="25" height="25" fill="white"/>
</clipPath>
</defs>
</svg>
