<svg width="25" height="25" viewBox="0 0 25 25" fill="none" xmlns="http://www.w3.org/2000/svg">
<g clip-path="url(#clip0_2231_476)">
<path d="M4.42773 9.17969H23.8945V23.5684H4.42773V9.17969Z" fill="white"/>
<path d="M0.292969 12.4824V24.6895H24.707V0.275391H0.292969V12.4824ZM19.9668 11.5059C20.5515 11.6416 21.083 11.9474 21.4941 12.3848C21.7205 12.6204 21.9172 12.8828 22.0801 13.166C22.0801 13.1973 21.0254 13.9102 20.3828 14.3086C20.3594 14.3242 20.2656 14.2227 20.1621 14.0684C20.0448 13.8659 19.8781 13.6966 19.6776 13.576C19.4772 13.4554 19.2494 13.3876 19.0156 13.3789C18.2754 13.3281 17.7988 13.7168 17.8027 14.3555C17.7966 14.5145 17.833 14.6722 17.9082 14.8125C18.0703 15.1504 18.373 15.3516 19.3223 15.7617C21.0703 16.5137 21.8184 17.0098 22.2832 17.7148C22.8027 18.4961 22.918 19.7578 22.5664 20.6914C22.1758 21.707 21.2188 22.3965 19.8652 22.625C19.247 22.6958 18.6224 22.6892 18.0059 22.6055C17.0609 22.4497 16.1904 21.996 15.5215 21.3105C15.2969 21.0625 14.8594 20.416 14.8867 20.3691C14.958 20.3162 15.0331 20.2686 15.1113 20.2266L16.0156 19.7266L16.7168 19.3203L16.8633 19.5371C17.1105 19.8907 17.4251 20.1921 17.7891 20.4238C18.5703 20.834 19.6367 20.7773 20.1641 20.3027C20.3411 20.1288 20.4516 19.8983 20.4762 19.6514C20.5008 19.4044 20.4381 19.1566 20.2988 18.9512C20.1035 18.6797 19.7129 18.4512 18.6211 17.9746C17.3613 17.4316 16.8184 17.0957 16.3223 16.5605C16.0126 16.2074 15.7839 15.7908 15.6523 15.3398C15.5542 14.8247 15.5397 14.2971 15.6094 13.7773C15.8691 12.5605 16.7812 11.7109 18.1133 11.459C18.7302 11.3827 19.355 11.3998 19.9668 11.5098V11.5059ZM14.2363 12.5293V13.5293H11.0664V22.5586H8.81836V13.5273H5.64062V12.5508C5.63073 12.214 5.63855 11.877 5.66406 11.541C5.67969 11.5234 7.61719 11.5234 9.96094 11.5234H14.2246L14.2363 12.5293Z" fill="#007ACC"/>
</g>
<defs>
<clipPath id="clip0_2231_476">
<rect width="25" height="25" fill="white"/>
</clipPath>
</defs>
</svg>
