<svg width="25" height="25" viewBox="0 0 25 25" fill="none" xmlns="http://www.w3.org/2000/svg">
<g clip-path="url(#clip0_2231_484)">
<path d="M24.3683 3.81252L13.1492 23.8746C12.9174 24.2889 12.3222 24.2912 12.0873 23.8793L0.645491 3.81486C0.389045 3.36526 0.772834 2.82131 1.2824 2.91213L12.5137 4.91936C12.5853 4.93244 12.6588 4.93244 12.7305 4.91936L23.7265 2.91526C24.234 2.82287 24.6201 3.36233 24.3683 3.81252Z" fill="url(#paint0_linear_2231_484)"/>
<path d="M17.8633 0.279314L9.5613 1.90588C9.49504 1.91882 9.43496 1.95341 9.39048 2.00421C9.34601 2.05501 9.31967 2.11915 9.3156 2.18654L8.80447 10.8131C8.80172 10.8604 8.81003 10.9077 8.82872 10.9513C8.84742 10.9948 8.876 11.0334 8.91219 11.064C8.94839 11.0946 8.99121 11.1163 9.03726 11.1275C9.08331 11.1386 9.13133 11.1389 9.17752 11.1283L11.4892 10.5942C11.539 10.5827 11.5909 10.584 11.6401 10.5978C11.6892 10.6116 11.7342 10.6375 11.7707 10.6732C11.8073 10.7089 11.8343 10.7532 11.8492 10.8021C11.8642 10.8509 11.8667 10.9027 11.8564 10.9528L11.1695 14.3158C11.159 14.3676 11.1621 14.4212 11.1786 14.4714C11.195 14.5216 11.2242 14.5667 11.2633 14.6022C11.3023 14.6377 11.35 14.6625 11.4015 14.6741C11.453 14.6857 11.5067 14.6837 11.5572 14.6684L12.9845 14.2342C13.2058 14.167 13.4187 14.3615 13.3722 14.5881L12.2804 19.8707C12.2125 20.2012 12.6519 20.3813 12.8351 20.0981L12.9572 19.909L19.7228 6.40705C19.8365 6.18049 19.6406 5.92267 19.3927 5.97072L17.0129 6.4301C16.9617 6.44004 16.9087 6.43666 16.8592 6.42027C16.8097 6.40388 16.7652 6.37503 16.73 6.33649C16.6949 6.29795 16.6702 6.25102 16.6584 6.20021C16.6466 6.14939 16.6481 6.09639 16.6627 6.04631L18.2154 0.663103C18.23 0.612838 18.2314 0.55966 18.2195 0.508696C18.2076 0.457731 18.1827 0.410698 18.1473 0.372132C18.1119 0.333565 18.0672 0.304765 18.0174 0.288507C17.9677 0.27225 17.9146 0.269084 17.8633 0.279314Z" fill="url(#paint1_linear_2231_484)"/>
</g>
<defs>
<linearGradient id="paint0_linear_2231_484" x1="0.365842" y1="2.19526" x2="14.3295" y2="21.159" gradientUnits="userSpaceOnUse">
<stop stop-color="#41D1FF"/>
<stop offset="1" stop-color="#BD34FE"/>
</linearGradient>
<linearGradient id="paint1_linear_2231_484" x1="11.8691" y1="0.720716" x2="14.3951" y2="18.0485" gradientUnits="userSpaceOnUse">
<stop stop-color="#FFEA83"/>
<stop offset="0.083" stop-color="#FFDD35"/>
<stop offset="1" stop-color="#FFA800"/>
</linearGradient>
<clipPath id="clip0_2231_484">
<rect width="25" height="25" fill="white"/>
</clipPath>
</defs>
</svg>
